# xmcd CD database file
#
# Track frame offsets:
#	150
#	19044
#	31785
#	45601
#	63661
#	79215
#	92413
#	109037
#	131464
#	151606
#	169577
#	191296
#	205521
#	223816
#
# Disc length: 3218 seconds
#
# Revision: 1
# Processed by: cddbd v1.5.1PL2 Copyright (c) Steve Scherf et al.
# Submitted via: CDex 1.70beta1
#
DISCID=a70c900e
DTITLE=Avraam Russo - Obruchaljnaja
DYEAR=2006
DGENRE=Pop
TTITLE0=Ne doljublju
TTITLE1=Obruchaljnaja
TTITLE2=Latino
TTITLE3=Daj mne shans
TTITLE4=Leto
TTITLE5=Shokoladka-Chikita
TTITLE6=Verj
TTITLE7=Ti-odna
TTITLE8=Dve fialki
TTITLE9=Zdi menja
TTITLE10=Vsjo projdjot
TTITLE11=I know
TTITLE12=Znaju
TTITLE13=Obruchaljnaja
EXTD=YEAR: 2006
EXTT0=
EXTT1=
EXTT2=
EXTT3=
EXTT4=
EXTT5=
EXTT6=
EXTT7=
EXTT8=
EXTT9=
EXTT10=
EXTT11=
EXTT12=
EXTT13=
PLAYORDER=
